<svg xmlns="http://www.w3.org/2000/svg" viewBox="0 0 100 160">

  <!-- Drop shadow -->
  <ellipse cx="50" cy="150" rx="34.8" ry="4" fill="rgba(0,0,0,0.10)"/>
  <line x1="36" y1="60.6" x2="36" y2="67.6"  stroke="white" stroke-width="1.5" stroke-linecap="round" opacity="0"/>
  <line x1="50" y1="58.6" x2="50" y2="65.6"  stroke="white" stroke-width="1.5" stroke-linecap="round" opacity="0"/>
  <line x1="64" y1="60.6" x2="64" y2="67.6"  stroke="white" stroke-width="1.5" stroke-linecap="round" opacity="0"/>

  <!-- Body -->
  <path d="M 50 73.6 C 73.8 72.6, 92.8 84.8, 92.4 99.6 C 92 115.2, 73 126.4, 50 126.4 C 27 126.4, 7.6 115.2, 7.2 99.6 C 6.8 84.4, 26.2 73.4, 50 73.6 Z"
        fill="none" stroke="white" stroke-width="2.5" stroke-linejoin="round"/>

  <!-- Eyebrows -->
  <path d="M 26.4 78 Q 35.4 78.1 44 81.8"
        fill="none" stroke="white" stroke-width="2" stroke-linecap="round"/>
  <path d="M 56 81.8 Q 64.6 78.1 73.6 78"
        fill="none" stroke="white" stroke-width="2" stroke-linecap="round"/>

  <!-- Eyes -->
  <ellipse cx="35.7" cy="95.8" rx="6.5" ry="2.1" fill="white"/>
  <ellipse cx="64.3" cy="95.8" rx="6.5" ry="2.1" fill="white"/>

  <!-- Mouth -->
  <path d="M 33.8 108.8 Q 50 113.2 66.2 108.8"
        fill="none" stroke="white" stroke-width="2.2" stroke-linecap="round"/>

</svg>