<svg xmlns="http://www.w3.org/2000/svg" viewBox="0 0 100 160">

  <!-- Drop shadow -->
  <ellipse cx="50" cy="150" rx="30" ry="4" fill="rgba(0,0,0,0.10)"/>
  <line x1="22" y1="77" x2="28" y2="80" stroke="white" stroke-width="1.5" stroke-linecap="round" opacity="0.1"/>
  <line x1="20" y1="87" x2="26" y2="86" stroke="white" stroke-width="1.5" stroke-linecap="round" opacity="0.1"/>
  <line x1="72" y1="80" x2="78" y2="77" stroke="white" stroke-width="1.5" stroke-linecap="round" opacity="0.1"/>
  <line x1="74" y1="86" x2="80" y2="87" stroke="white" stroke-width="1.5" stroke-linecap="round" opacity="0.1"/>

  <!-- Body -->
  <path d="M 50 20.8 C 58.9 20.5, 90.3 55, 90 84 C 89.7 110.8, 73 124, 50 124 C 27 124, 10 110.8, 9.7 84 C 9.4 54.7, 41.1 21.1, 50 20.8 Z"
        fill="none" stroke="white" stroke-width="2.5" stroke-linejoin="round"/>

  <!-- Eyebrows -->
  <path d="M 29.1 74.6 Q 36.7 68.9 44 69.4"
        fill="none" stroke="white" stroke-width="2" stroke-linecap="round"/>
  <path d="M 56 69.4 Q 63.3 68.9 70.9 74.6"
        fill="none" stroke="white" stroke-width="2" stroke-linecap="round"/>

  <!-- Eyes -->
  <ellipse cx="36" cy="79" rx="3.5" ry="3.5" fill="white"/>
  <ellipse cx="64" cy="79" rx="3.5" ry="3.5" fill="white"/>

  <!-- Mouth -->
  <path d="M 37.3 95.5 Q 50 92.5 62 95.5"
        fill="none" stroke="white" stroke-width="2.2" stroke-linecap="round"/>

</svg>