<svg xmlns="http://www.w3.org/2000/svg" viewBox="0 0 100 160">

  <!-- Drop shadow -->
  <ellipse cx="50" cy="150" rx="30" ry="4" fill="rgba(0,0,0,0.10)"/>
  <line x1="22" y1="77" x2="28" y2="80" stroke="white" stroke-width="1.5" stroke-linecap="round" opacity="0.4"/>
  <line x1="20" y1="87" x2="26" y2="86" stroke="white" stroke-width="1.5" stroke-linecap="round" opacity="0.4"/>
  <line x1="72" y1="80" x2="78" y2="77" stroke="white" stroke-width="1.5" stroke-linecap="round" opacity="0.4"/>
  <line x1="74" y1="86" x2="80" y2="87" stroke="white" stroke-width="1.5" stroke-linecap="round" opacity="0.4"/>

  <!-- Body -->
  <path d="M 50 13.6 C 54.3 13.5, 90.1 53, 90 84 C 89.9 111.6, 73 124, 50 124 C 27 124, 10 111.6, 9.9 84 C 9.8 52.9, 45.7 13.7, 50 13.6 Z"
        fill="none" stroke="white" stroke-width="2.5" stroke-linejoin="round"/>

  <!-- Eyebrows -->
  <path d="M 29.7 76.2 Q 36.9 70.3 44 69.8"
        fill="none" stroke="white" stroke-width="2" stroke-linecap="round"/>
  <path d="M 56 69.8 Q 63.1 70.3 70.3 76.2"
        fill="none" stroke="white" stroke-width="2" stroke-linecap="round"/>

  <!-- Eyes -->
  <ellipse cx="36" cy="79" rx="3.5" ry="3.5" fill="white"/>
  <ellipse cx="64" cy="79" rx="3.5" ry="3.5" fill="white"/>

  <!-- Mouth -->
  <path d="M 37.1 96.5 Q 50 89.5 62 96.5"
        fill="none" stroke="white" stroke-width="2.2" stroke-linecap="round"/>

</svg>