<svg xmlns="http://www.w3.org/2000/svg" viewBox="0 0 100 160">

  <!-- Drop shadow -->
  <ellipse cx="50" cy="150" rx="37.2" ry="4" fill="rgba(0,0,0,0.10)"/>
  <line x1="36" y1="74.4" x2="36" y2="81.4"  stroke="white" stroke-width="1.5" stroke-linecap="round" opacity="0.4"/>
  <line x1="50" y1="72.4" x2="50" y2="79.4"  stroke="white" stroke-width="1.5" stroke-linecap="round" opacity="0.4"/>
  <line x1="64" y1="74.4" x2="64" y2="81.4"  stroke="white" stroke-width="1.5" stroke-linecap="round" opacity="0.4"/>

  <!-- Body -->
  <path d="M 50 87.4 C 73.2 86.4, 93.7 96.2, 93.6 107.4 C 93.5 118.8, 73 127.6, 50 127.6 C 27 127.6, 6.4 118.8, 6.3 107.4 C 6.2 96.1, 26.8 86.6, 50 87.4 Z"
        fill="none" stroke="white" stroke-width="2.5" stroke-linejoin="round"/>

  <!-- Eyebrows -->
  <path d="M 26.1 82.5 Q 35.1 85.2 44 88.7"
        fill="none" stroke="white" stroke-width="2" stroke-linecap="round"/>
  <path d="M 56 88.7 Q 64.9 85.2 73.9 82.5"
        fill="none" stroke="white" stroke-width="2" stroke-linecap="round"/>

  <!-- Eyes -->
  <ellipse cx="35.6" cy="104.2" rx="8" ry="1.4" fill="white"/>
  <ellipse cx="64.5" cy="104.2" rx="8" ry="1.4" fill="white"/>

  <!-- Mouth -->
  <path d="M 31.7 117.2 Q 50 118.3 68.3 117.2"
        fill="none" stroke="white" stroke-width="2.2" stroke-linecap="round"/>

</svg>