<svg xmlns="http://www.w3.org/2000/svg" viewBox="0 0 100 160">

  <!-- Drop shadow -->
  <ellipse cx="50" cy="150" rx="30" ry="4" fill="rgba(0,0,0,0.10)"/>
  <line x1="22" y1="77" x2="28" y2="80" stroke="white" stroke-width="1.5" stroke-linecap="round" opacity="0.5"/>
  <line x1="20" y1="87" x2="26" y2="86" stroke="white" stroke-width="1.5" stroke-linecap="round" opacity="0.5"/>
  <line x1="72" y1="80" x2="78" y2="77" stroke="white" stroke-width="1.5" stroke-linecap="round" opacity="0.5"/>
  <line x1="74" y1="86" x2="80" y2="87" stroke="white" stroke-width="1.5" stroke-linecap="round" opacity="0.5"/>

  <!-- Body -->
  <path d="M 50 10 C 52 10, 90 52, 90 84 C 90 112, 73 124, 50 124 C 27 124, 10 112, 10 84 C 10 52, 48 10, 50 10 Z"
        fill="none" stroke="white" stroke-width="2.5" stroke-linejoin="round"/>

  <!-- Eyebrows -->
  <path d="M 30 77 Q 37 71 44 70"
        fill="none" stroke="white" stroke-width="2" stroke-linecap="round"/>
  <path d="M 56 70 Q 63 71 70 77"
        fill="none" stroke="white" stroke-width="2" stroke-linecap="round"/>

  <!-- Eyes -->
  <ellipse cx="36" cy="79" rx="3.5" ry="3.5" fill="white"/>
  <ellipse cx="64" cy="79" rx="3.5" ry="3.5" fill="white"/>

  <!-- Mouth -->
  <path d="M 37 97 Q 50 88 62 97"
        fill="none" stroke="white" stroke-width="2.2" stroke-linecap="round"/>

</svg>